<?xml version="1.0" encoding="UTF-8"?>
<svg width="58px" height="58px" viewBox="0 0 58 58" version="1.1" xmlns="http://www.w3.org/2000/svg" xmlns:xlink="http://www.w3.org/1999/xlink">
    <!-- Generator: Sketch 42 (36781) - http://www.bohemiancoding.com/sketch -->
    <title>Competitor Icon</title>
    <desc>Created with Sketch.</desc>
    <defs></defs>
    <g id="Website" stroke="none" stroke-width="1" fill="none" fill-rule="evenodd" opacity="0.647124094">
        <g id="Contact" transform="translate(-859.000000, -430.000000)" stroke="#4C4C4C" stroke-width="2">
            <g id="Competitor-Icon" transform="translate(860.000000, 431.000000)">
                <path d="M9.93281904,27.9983394 C8.87630499,37.4817054 9.00493195,41.4521484 9.00493195,41.4521484 C9.00493195,41.4521484 15.5131836,51.8583984 27.831543,52.1132812 C44.3208008,50.2539063 48.1104007,39.6630859 48.1104007,39.6630859 C48.1104007,36.0128067 45.8158963,31.9699539 44.138721,31.070331 C42.4615457,30.1707081 39.4963197,31.6725457 39.4963197,30.4947499 C39.4963197,30.0756516 38.9214649,29.5247607 39.4963197,29.3085938 C40.9311523,28.769043 41.7363281,26.97318 41.7363281,25.4758009 C41.7363281,23.1512817 41.3430185,18.8066406 37.0859375,18.8066406 C32.8288565,18.8066406 32.1114216,23.0047971 32.1114216,25.4758009 C32.1114216,27.1139653 33.7790168,28.3721556 34.4810698,29.3085938 C34.8379921,29.784677 34.4810698,30.1825598 34.4810698,30.4947499 C34.4810698,31.4210064 32.1114216,31.9928884 32.1114216,31.9928884 L28.6098464,31.070331 C28.6098464,31.070331 28.1319217,29.2303949 27.3580684,25.7584127 C26.2668317,15.6598493 18.3603594,6 18.3603594,6 C18.3603594,6 12.9565161,12.5297919 10.8301756,21.9936488 C10.5248388,21.991141 10.2372588,22 10,22 C8.8954305,22 8,23.3431458 8,25 C8,26.6231309 8.85935057,27.9451937 9.93281904,27.9983394 Z" id="Combined-Shape"></path>
                <circle id="Oval-Copy" cx="28" cy="28" r="28"></circle>
                <polyline id="Path-4" points="30.2767445 52.5794534 29 40 32.2354165 41.3964844 33.3756181 51.7382763"></polyline>
            </g>
        </g>
    </g>
</svg>