<?xml version="1.0" encoding="UTF-8"?>
<svg width="204px" height="42px" viewBox="0 0 204 42" version="1.1" xmlns="http://www.w3.org/2000/svg" xmlns:xlink="http://www.w3.org/1999/xlink">
    <!-- Generator: Sketch 42 (36781) - http://www.bohemiancoding.com/sketch -->
    <title>SurfSignup Logo</title>
    <desc>Created with Sketch.</desc>
    <defs></defs>
    <g id="Website" stroke="none" stroke-width="1" fill="none" fill-rule="evenodd">
        <g id="Homepage" transform="translate(-77.000000, -49.000000)" fill="#2A2F31">
            <g id="Header" transform="translate(77.000000, 49.000000)">
                <g id="SurfSignup-Logo">
                    <path d="M26.7207789,16.0811538 L22.6547368,21.6235385 C22.3122316,22.0903846 21.7705579,22.3676923 21.1923789,22.3725385 L21.1773474,22.3725385 C20.6056105,22.3725385 20.0655474,22.1043846 19.7187474,21.6477692 L17.7533684,19.0588462 C17.1397579,18.2506154 17.2954421,17.0966923 18.1012421,16.4812308 C18.9070421,15.8652308 20.0574947,16.0219231 20.6711053,16.8301538 L21.1526526,17.4639231 L23.7665368,13.9003846 C24.3667263,13.0824615 25.5150316,12.9069231 26.3304947,13.5089231 C27.1464947,14.1114615 27.3209684,15.2626923 26.7207789,16.0811538 Z M22.0572316,10.0213077 C17.8746947,10.0213077 14.4834632,13.4227692 14.4834632,17.6179231 C14.4834632,21.8130769 17.8746947,25.214 22.0572316,25.214 C26.2403053,25.214 29.6304632,21.8130769 29.6304632,17.6179231 C29.6304632,13.4227692 26.2403053,10.0213077 22.0572316,10.0213077 L22.0572316,10.0213077 Z" id="Fill-48"></path>
                    <path d="M18.2982632,3.90061538 C26.3090211,3.90061538 32.8032,10.4143846 32.8032,18.4493077 C32.8032,20.3393077 32.4402947,22.1426154 31.7864211,23.7994615 C29.8403684,27.0889231 26.2666105,29.2955385 22.1764105,29.2955385 C16.0064842,29.2955385 11.0047263,24.2781538 11.0047263,18.0896154 C11.0047263,16.4984615 11.3370316,14.9864615 11.9329263,13.6155385 C7.12174737,14.6073846 5.01195789,18.8057692 4.46598947,22.8366923 C4.02953684,21.4523077 3.79332632,19.9785385 3.79332632,18.4493077 C3.79332632,10.4143846 10.2875053,3.90061538 18.2982632,3.90061538 Z M18.2982632,0.110384615 C8.21636842,0.110384615 0.0144947368,8.33753846 0.0144947368,18.4493077 C0.0144947368,28.5616154 8.21636842,36.7887692 18.2982632,36.7887692 C28.3801579,36.7887692 36.5820316,28.5616154 36.5820316,18.4493077 C36.5820316,8.33753846 28.3801579,0.110384615 18.2982632,0.110384615 L18.2982632,0.110384615 Z" id="Fill-49"></path>
                    <path d="M18.2837684,3.79023077 C26.2945263,3.79023077 32.7887053,10.304 32.7887053,18.3389231 C32.7887053,20.2289231 32.4258,22.0322308 31.7719263,23.6890769 C29.8258737,26.9785385 26.2521158,29.1851538 22.1619158,29.1851538 C15.9919895,29.1851538 10.9902316,24.1677692 10.9902316,17.9792308 C10.9902316,16.3880769 11.3225368,14.8760769 11.9184316,13.5051538 C7.10725263,14.497 4.99746316,18.6953846 4.45149474,22.7263077 C4.01504211,21.3419231 3.77883158,19.8681538 3.77883158,18.3389231 C3.77883158,10.304 10.2730105,3.79023077 18.2837684,3.79023077 Z M18.2837684,0 C8.20187368,0 0,8.22715385 0,18.3389231 C0,28.4512308 8.20187368,36.6783846 18.2837684,36.6783846 C28.3656632,36.6783846 36.5675368,28.4512308 36.5675368,18.3389231 C36.5675368,8.22715385 28.3656632,0 18.2837684,0 L18.2837684,0 Z" id="Fill-49"></path>
                    <path d="M48.5192526,32.0330769 C45.7459263,31.4693077 43.0472211,30.1161538 40.6861895,28.049 L39.9743368,27.4093077 L43.2721579,23.6508462 L43.9845474,24.2894615 C45.7083474,25.7933846 47.6200421,26.8083846 49.4936211,27.1842308 L49.5312,27.1842308 C50.0932737,27.2967692 50.6553474,27.3721538 51.2174211,27.3721538 C52.1542105,27.3721538 53.0163789,27.1842308 53.7282316,26.8455385 C54.6279789,26.4696923 55.6769684,25.6431538 55.6769684,24.1020769 C55.6769684,23.275 55.2646737,22.6358462 54.4030421,22.1097692 C53.3535158,21.4706154 51.9292737,21.1324615 50.9178632,20.9445385 C50.4679895,20.8691538 46.6451368,20.0797692 44.8837579,19.1024615 C43.7220316,18.3879231 42.8228211,17.4865385 42.1855895,16.4338462 C41.5483579,15.3434615 41.2488,14.1405385 41.2488,12.8250769 C41.2488,11.3965385 41.6986737,9.96853846 42.5603053,8.65253846 C43.3848947,7.56269231 44.5090421,6.66023077 45.8581263,6.02161538 C47.2072105,5.38246154 48.7066105,5.04376923 50.3176737,5.04376923 C50.9549053,5.04376923 51.6297158,5.11915385 52.3045263,5.19453846 C54.7777579,5.64523077 57.2139474,6.77330769 59.3500421,8.57769231 L60.0618947,9.17915385 L56.8762737,13.0501538 L56.1644211,12.4492308 C53.7282316,10.4569231 51.6297158,10.0056923 50.2806316,10.0056923 C49.4184632,10.0056923 48.6314526,10.1941538 47.9566421,10.4940769 C46.9076526,10.983 46.2333789,11.8849231 46.2333789,12.7873846 C46.2333789,13.6144615 46.5329368,14.1405385 47.2447895,14.6294615 C47.9566421,15.1178462 49.0437474,15.4936923 50.7675474,15.8700769 C50.9924842,15.9072308 51.2925789,15.9826154 51.5921368,16.0574615 C53.1661579,16.3584615 55.2646737,16.8096923 56.7264947,17.6739231 C58.0004211,18.3507692 58.9747895,19.2903846 59.6496,20.3807692 C60.3244105,21.4706154 60.6615474,22.7483846 60.6615474,24.1020769 C60.6615474,25.7933846 60.2116737,27.2967692 59.3124632,28.5745385 C58.5254526,29.6654615 57.3637263,30.6050769 55.8272842,31.3562308 C54.5152421,32.0330769 53.0539579,32.3340769 51.2174211,32.3340769 C50.3552526,32.3340769 49.4560421,32.221 48.5192526,32.0330769" id="Fill-51"></path>
                    <path d="M64.1225684,30.2663846 C62.5861263,28.8001538 61.7615368,26.8083846 61.7615368,24.6658462 L61.7615368,14.8922308 L66.4836,14.8922308 L66.4836,24.6658462 C66.4836,26.4325385 67.9454211,27.8605385 69.7814211,27.8605385 C71.6179579,27.8605385 73.1173579,26.4325385 73.1173579,24.6658462 L73.1173579,14.8922308 L77.8394211,14.8922308 L77.8394211,24.6658462 C77.8394211,26.7706923 76.9772526,28.763 75.4408105,30.2663846 C73.9414105,31.7326154 71.9556316,32.5214615 69.7814211,32.5214615 C67.6077474,32.5214615 65.5843895,31.7326154 64.1225684,30.2663846" id="Fill-52"></path>
                    <path d="M79.1895789,32.1084615 L79.1895789,14.8922308 L83.9116421,14.8922308 L83.9116421,16.2830769 C85.2607263,14.9304615 87.2840842,14.4792308 88.6331684,14.4792308 L89.7578526,14.4792308 L89.5549263,18.9107692 L87.8434737,18.9759231 C85.6327579,18.9759231 83.9116421,20.9068462 83.9116421,22.974 L83.9116421,32.1084615 L79.1895789,32.1084615" id="Fill-53"></path>
                    <path d="M90.8326105,32.1084615 L90.8326105,10.6071538 C90.8326105,8.95353846 91.4698421,7.41246154 92.5939895,6.28438462 C93.7932947,5.15684615 95.3302737,4.51769231 96.9413368,4.51769231 L101.513084,4.51769231 L100.314316,8.95353846 L97.0159579,8.95353846 C96.1543263,8.95353846 95.3673158,9.74292308 95.3673158,10.6825385 L95.3673158,15.043 L100.351358,15.043 L100.351358,18.9145385 L95.3673158,18.9145385 L95.3673158,32.1084615 L90.8326105,32.1084615" id="Fill-54"></path>
                    <path d="M113.206579,32.0713077 C110.433253,31.507 107.697505,30.1161538 105.261853,28.0113077 L107.473105,25.4929231 C109.458884,27.2219231 111.670137,28.3871538 113.880853,28.8383846 C115.754968,29.2513846 117.590968,29.1011538 119.052789,28.4248462 C120.027158,27.9736154 121.713916,26.8455385 121.713916,24.5533077 C121.713916,21.7333846 118.715653,20.7189231 115.792547,20.1551538 C115.530568,20.1169231 111.332463,19.2526923 109.646779,18.2753846 C107.397947,16.9222308 106.198642,14.8922308 106.198642,12.4115385 C106.198642,11.0206923 106.648516,9.70469231 107.434989,8.53946154 C108.222,7.48730769 109.309105,6.62307692 110.583568,6.02161538 C112.457147,5.11915385 114.6684,4.85638462 116.917232,5.23223077 C119.352884,5.64523077 121.826116,6.81046154 123.999789,8.61484615 L121.863695,11.2086154 C118.0038,8.01392308 114.255568,7.93853846 112.007274,8.99069231 C110.470832,9.70469231 109.571621,11.0206923 109.571621,12.3738462 C109.571621,14.9304615 111.745295,15.9072308 115.192895,16.6594615 C116.617137,16.9970769 119.577821,17.4865385 121.3392,18.501 C123.774853,19.8541538 125.049316,21.959 125.049316,24.5533077 C125.049316,26.0938462 124.636484,27.5223846 123.774853,28.763 C122.987842,29.8905385 121.789074,30.7553077 120.439453,31.4316154 C119.015747,32.1456154 117.553926,32.3712308 115.905284,32.3712308 C115.005537,32.3712308 114.105789,32.2586923 113.206579,32.0713077" id="Fill-55"></path>
                    <path d="M126.324853,32.1084615 L129.548053,32.1084615 L129.548053,15.9691538 L126.324853,15.9691538 L126.324853,32.1084615 Z M125.799821,11.5839231 C125.799821,10.4186923 126.737147,9.47907692 127.936453,9.47907692 C129.098179,9.47907692 130.034968,10.4186923 130.034968,11.5839231 C130.034968,12.7491538 129.098179,13.7259231 127.936453,13.7259231 C126.737147,13.7259231 125.799821,12.7491538 125.799821,11.5839231 L125.799821,11.5839231 Z" id="Fill-56"></path>
                    <path d="M145.388653,23.5006154 C145.388653,20.3053846 142.802684,17.6739231 139.6176,17.6739231 C136.431979,17.6739231 133.846011,20.3053846 133.846011,23.5006154 C133.846011,26.6953077 136.431979,29.3267692 139.6176,29.3267692 C142.802684,29.3267692 145.388653,26.6953077 145.388653,23.5006154 Z M148.611853,14.8922308 L148.611853,32.9355385 C148.611853,35.3413846 147.674526,37.6341538 145.951263,39.3254615 C144.264505,41.0173077 142.015674,41.9569231 139.6176,41.9569231 C137.818105,41.9569231 136.169463,41.4685385 134.7828,40.6414615 C134.220726,40.3033077 133.658653,39.8520769 133.1712,39.4008462 L135.607389,37.2577692 C136.693958,38.1230769 138.230937,38.724 139.6176,38.7993846 C142.802684,38.7993846 145.388653,36.1307692 145.388653,32.9355385 L145.388653,30.1161538 C143.777589,31.4693077 141.753158,32.4843077 139.6176,32.4843077 C137.218989,32.4843077 134.970158,31.5818462 133.246358,29.8905385 C131.560137,28.1615385 130.623347,25.9059231 130.623347,23.5006154 C130.623347,21.0947692 131.560137,18.8391538 133.246358,17.1101538 C134.970158,15.4188462 137.218989,14.5163846 139.6176,14.5163846 C141.753158,14.5163846 143.777589,15.5313846 145.388653,16.8845385 L145.388653,14.8922308 L148.611853,14.8922308 L148.611853,14.8922308 Z" id="Fill-57"></path>
                    <path d="M166.788789,22.8614615 L166.788789,32.1084615 L163.566126,32.1084615 L163.566126,22.8614615 C163.566126,20.0426154 161.317832,17.7116154 158.506389,17.7116154 C155.733063,17.7116154 153.447189,20.0426154 153.447189,22.8614615 L153.447189,32.1084615 L150.223989,32.1084615 L150.223989,14.8922308 L153.447189,14.8922308 L153.447189,16.5463846 C154.909011,15.4188462 156.670389,14.5540769 158.506389,14.5540769 C160.717642,14.5540769 162.816695,15.3806154 164.390179,16.9599231 C165.926621,18.5386923 166.788789,20.6063846 166.788789,22.8614615" id="Fill-58"></path>
                    <path d="M168.038558,24.7406923 L168.038558,14.8922308 L171.261758,14.8922308 L171.261758,24.7406923 C171.261758,27.2596154 173.360274,29.3267692 175.983821,29.3267692 C178.569253,29.3267692 180.705884,27.2596154 180.705884,24.7406923 L180.705884,14.8922308 L183.928547,14.8922308 L183.928547,24.7406923 C183.928547,26.8455385 183.066379,28.8001538 181.567516,30.2663846 C180.068653,31.7326154 178.082337,32.4843077 175.983821,32.4843077 C173.847189,32.4843077 171.860874,31.7326154 170.362011,30.2663846 C168.863147,28.8001538 168.038558,26.8455385 168.038558,24.7406923" id="Fill-59"></path>
                    <path d="M200.481,23.5006154 C200.481,20.3053846 197.895032,17.6739231 194.709947,17.6739231 C191.523789,17.6739231 188.938358,20.3053846 188.938358,23.5006154 C188.938358,26.6953077 191.523789,29.3267692 194.709947,29.3267692 C197.895032,29.3267692 200.481,26.6953077 200.481,23.5006154 Z M203.7042,23.5006154 C203.7042,25.9059231 202.767411,28.1615385 201.043074,29.8905385 C199.356853,31.5818462 197.108558,32.4843077 194.709947,32.4843077 C192.573316,32.4843077 190.549958,31.4693077 188.938358,30.1161538 L188.938358,41.9569231 L185.715158,41.9569231 L185.715158,14.8922308 L188.938358,14.8922308 L188.938358,16.8845385 C190.549958,15.5313846 192.573316,14.5163846 194.709947,14.5163846 C197.108558,14.5163846 199.356853,15.4188462 201.043074,17.1101538 C202.767411,18.8391538 203.7042,21.0947692 203.7042,23.5006154 L203.7042,23.5006154 Z" id="Fill-60"></path>
                </g>
            </g>
        </g>
    </g>
</svg>